<svg id="svgcontent" width="955" height="626" x="0" y="0" overflow="visible" xmlns="http://www.w3.org/2000/svg" xmlns:se="http://imprintnext.com" xmlns:xlink="http://www.w3.org/1999/xlink" viewBox="0 0 955 626"><!-- Made with luv in USA by ImprintNext - https://imprintnext.com--><defs><clipPath id="bound_0" xe_id="bound_0"><rect id="xe_uh4os0" x="215.5" y="129.6" pointer-events="all" width="524" height="366.8"></rect></clipPath></defs><g id="bounds" display="none"><path d="M215.5 129.6 L739.5 129.6 L739.5 496.4 L215.5 496.4  Z" x="215.5" y="129.6" width="524" height="366.8" aWidth="1" aHeight="0.70" fill="none" stroke="#006400" isBleed="0" safeVal="0" cropVal="0" stroke-miterlimit="null" stroke-width="1" pointer-events="all" id="bound_0" xe_id="bound_0"></path></g><g class="layer" id="Layer_0" xe_id="Layer_0" style="pointer-events:all" clip-path="url(#bound_0)"><title>Layer_0</title><g id="background" type="bg_area_0" pointer-events="none" style="color-interpolation-filters:sRGB;pointer-events: none;"></g><g id="xe_z9ovcg" type="text" style="pointer-events: bounding-box;" pointer-events="bounding-box" xe-props="&amp;#35;&amp;#103;&amp;#76;&amp;#73;&amp;#65;&amp;#101;&amp;#122;&amp;#127;&amp;#26;&amp;#68;&amp;#84;&amp;#120;&amp;#44;&amp;#103;&amp;#20;&amp;#18;&amp;#69;&amp;#101;&amp;#32;&amp;#49;&amp;#26;&amp;#10;&amp;#19;&amp;#66;&amp;#42;&amp;#44;&amp;#95;&amp;#88;&amp;#69;&amp;#101;&amp;#54;&amp;#103;&amp;#20;&amp;#18;&amp;#87;&amp;#111;&amp;#54;&amp;#49;&amp;#26;&amp;#10;&amp;#74;&amp;#34;&amp;#32;&amp;#32;&amp;#103;&amp;#89;&amp;#85;&amp;#34;&amp;#98;&amp;#116;&amp;#9;&amp;#5;&amp;#29;&amp;#34;&amp;#54;&amp;#36;&amp;#85;&amp;#85;&amp;#19;&amp;#58;&amp;#122;&amp;#38;&amp;#87;&amp;#94;&amp;#66;&amp;#111;&amp;#52;&amp;#36;&amp;#26;&amp;#28;&amp;#19;&amp;#112;&amp;#42;&amp;#44;&amp;#91;&amp;#85;&amp;#19;&amp;#58;&amp;#104;&amp;#105;&amp;#26;&amp;#86;&amp;#94;&amp;#110;&amp;#44;&amp;#26;&amp;#94;&amp;#81;&amp;#92;&amp;#105;&amp;#52;&amp;#60;&amp;#26;&amp;#10;&amp;#19;&amp;#67;&amp;#55;&amp;#43;&amp;#75;&amp;#95;&amp;#93;&amp;#97;&amp;#43;&amp;#103;&amp;#20;&amp;#18;&amp;#87;&amp;#105;&amp;#52;&amp;#32;&amp;#103;&amp;#94;&amp;#80;&amp;#109;&amp;#61;&amp;#103;&amp;#2;&amp;#18;&amp;#89;&amp;#116;&amp;#44;&amp;#53;&amp;#75;&amp;#10;&amp;#30;&amp;#47;&amp;#49;&amp;#40;&amp;#72;&amp;#66;&amp;#88;&amp;#110;&amp;#44;&amp;#43;&amp;#93;&amp;#72;&amp;#69;&amp;#46;&amp;#49;&amp;#42;&amp;#23;&amp;#72;&amp;#84;&amp;#116;&amp;#55;&amp;#42;&amp;#84;&amp;#31;&amp;#80;&amp;#115;&amp;#43;&amp;#32;&amp;#76;&amp;#67;&amp;#30;&amp;#102;&amp;#55;&amp;#43;&amp;#76;&amp;#67;&amp;#30;&amp;#50;&amp;#104;&amp;#119;&amp;#9;&amp;#0;&amp;#2;&amp;#50;&amp;#108;&amp;#117;&amp;#14;&amp;#3;&amp;#2;&amp;#53;&amp;#104;&amp;#112;&amp;#9;&amp;#8;&amp;#1;&amp;#46;&amp;#44;&amp;#49;&amp;#94;&amp;#18;&amp;#29;&amp;#34;&amp;#59;&amp;#36;&amp;#76;&amp;#85;&amp;#86;&amp;#111;&amp;#42;&amp;#60;&amp;#103;&amp;#94;&amp;#80;&amp;#109;&amp;#61;&amp;#54;&amp;#26;&amp;#10;&amp;#19;&amp;#65;&amp;#59;&amp;#49;&amp;#81;&amp;#95;&amp;#95;&amp;#44;&amp;#120;&amp;#8;&amp;#81;&amp;#92;&amp;#88;&amp;#116;&amp;#57;&amp;#55;&amp;#65;&amp;#28;&amp;#17;&amp;#70;&amp;#45;&amp;#43;&amp;#20;&amp;#16;&amp;#125;&amp;#111;&amp;#46;&amp;#32;&amp;#20;&amp;#16;&amp;#115;&amp;#105;&amp;#58;&amp;#41;&amp;#93;&amp;#16;&amp;#119;&amp;#111;&amp;#54;&amp;#49;&amp;#20;&amp;#16;&amp;#97;&amp;#114;&amp;#61;&amp;#40;&amp;#81;&amp;#69;&amp;#92;&amp;#32;&amp;#62;&amp;#42;&amp;#86;&amp;#68;&amp;#19;&amp;#125;&amp;#116;&amp;#103;&amp;#94;&amp;#89;&amp;#93;&amp;#108;&amp;#122;&amp;#127;&amp;#26;&amp;#19;&amp;#1;&amp;#48;&amp;#104;&amp;#117;&amp;#8;&amp;#0;&amp;#19;&amp;#44;&amp;#122;&amp;#35;&amp;#81;&amp;#92;&amp;#93;&amp;#78;&amp;#57;&amp;#40;&amp;#93;&amp;#18;&amp;#11;&amp;#34;&amp;#123;&amp;#117;&amp;#8;&amp;#0;&amp;#1;&amp;#48;&amp;#104;&amp;#103;&amp;#20;&amp;#18;&amp;#66;&amp;#116;&amp;#42;&amp;#42;&amp;#83;&amp;#85;&amp;#19;&amp;#58;&amp;#122;&amp;#102;&amp;#8;&amp;#0;&amp;#1;&amp;#48;&amp;#104;&amp;#117;&amp;#26;&amp;#28;&amp;#19;&amp;#115;&amp;#44;&amp;#55;&amp;#87;&amp;#91;&amp;#84;&amp;#78;&amp;#57;&amp;#40;&amp;#93;&amp;#18;&amp;#11;&amp;#34;&amp;#123;&amp;#117;&amp;#8;&amp;#0;&amp;#1;&amp;#48;&amp;#104;&amp;#103;&amp;#20;&amp;#18;&amp;#69;&amp;#101;&amp;#32;&amp;#49;&amp;#116;&amp;#85;&amp;#95;&amp;#34;&amp;#98;&amp;#125;&amp;#20;&amp;#18;&amp;#66;&amp;#116;&amp;#42;&amp;#42;&amp;#83;&amp;#85;&amp;#102;&amp;#105;&amp;#60;&amp;#49;&amp;#80;&amp;#18;&amp;#11;&amp;#48;&amp;#116;&amp;#103;&amp;#86;&amp;#95;&amp;#126;&amp;#102;&amp;#20;&amp;#44;&amp;#86;&amp;#85;&amp;#66;&amp;#34;&amp;#98;&amp;#117;&amp;#20;&amp;#18;&amp;#93;&amp;#105;&amp;#54;&amp;#32;&amp;#107;&amp;#64;&amp;#80;&amp;#99;&amp;#61;&amp;#103;&amp;#2;&amp;#0;&amp;#29;&amp;#34;&amp;#52;&amp;#32;&amp;#76;&amp;#68;&amp;#84;&amp;#114;&amp;#11;&amp;#53;&amp;#89;&amp;#83;&amp;#84;&amp;#34;&amp;#98;&amp;#117;&amp;#20;&amp;#18;&amp;#87;&amp;#111;&amp;#54;&amp;#49;&amp;#107;&amp;#89;&amp;#75;&amp;#101;&amp;#122;&amp;#127;&amp;#11;&amp;#6;&amp;#29;&amp;#34;&amp;#57;&amp;#55;&amp;#76;&amp;#99;&amp;#88;&amp;#122;&amp;#61;&amp;#103;&amp;#2;&amp;#1;&amp;#29;&amp;#34;&amp;#61;&amp;#35;&amp;#94;&amp;#85;&amp;#82;&amp;#116;&amp;#122;&amp;#127;&amp;#26;&amp;#94;&amp;#94;&amp;#110;&amp;#61;&amp;#103;&amp;#20;&amp;#18;&amp;#80;&amp;#108;&amp;#49;&amp;#34;&amp;#86;&amp;#18;&amp;#11;&amp;#34;&amp;#59;&amp;#32;&amp;#86;&amp;#68;&amp;#84;&amp;#114;&amp;#122;&amp;#105;&amp;#26;&amp;#83;&amp;#94;&amp;#108;&amp;#55;&amp;#55;&amp;#75;&amp;#18;&amp;#11;&amp;#91;&amp;#122;&amp;#102;&amp;#8;&amp;#0;&amp;#1;&amp;#48;&amp;#104;&amp;#117;&amp;#26;&amp;#28;&amp;#19;&amp;#35;&amp;#104;&amp;#117;&amp;#8;&amp;#0;&amp;#1;&amp;#48;&amp;#122;&amp;#24;&amp;#20;&amp;#18;&amp;#73;&amp;#101;&amp;#17;&amp;#33;&amp;#26;&amp;#10;&amp;#0;&amp;#49;&amp;#109;&amp;#105;&amp;#26;&amp;#95;&amp;#83;&amp;#106;&amp;#61;&amp;#38;&amp;#76;&amp;#100;&amp;#88;&amp;#116;&amp;#52;&amp;#32;&amp;#26;&amp;#10;&amp;#19;&amp;#34;&amp;#116;&amp;#103;&amp;#87;&amp;#64;&amp;#84;&amp;#114;&amp;#57;&amp;#49;&amp;#81;&amp;#95;&amp;#95;&amp;#34;&amp;#98;&amp;#103;&amp;#77;&amp;#64;&amp;#85;&amp;#97;&amp;#44;&amp;#32;&amp;#26;&amp;#28;&amp;#19;&amp;#105;&amp;#43;&amp;#17;&amp;#93;&amp;#93;&amp;#65;&amp;#108;&amp;#57;&amp;#49;&amp;#93;&amp;#117;&amp;#93;&amp;#101;&amp;#53;&amp;#103;&amp;#2;&amp;#86;&amp;#80;&amp;#108;&amp;#43;&amp;#32;&amp;#20;&amp;#18;&amp;#88;&amp;#115;&amp;#14;&amp;#32;&amp;#74;&amp;#68;&amp;#88;&amp;#99;&amp;#57;&amp;#41;&amp;#26;&amp;#10;&amp;#87;&amp;#97;&amp;#52;&amp;#54;&amp;#93;&amp;#28;&amp;#19;&amp;#105;&amp;#43;&amp;#17;&amp;#93;&amp;#93;&amp;#65;&amp;#108;&amp;#57;&amp;#49;&amp;#93;&amp;#121;&amp;#92;&amp;#103;&amp;#122;&amp;#127;&amp;#94;&amp;#81;&amp;#93;&amp;#115;&amp;#61;&amp;#105;&amp;#26;&amp;#92;&amp;#94;&amp;#99;&amp;#51;&amp;#103;&amp;#2;&amp;#75;&amp;#19;&amp;#99;&amp;#55;&amp;#41;&amp;#87;&amp;#66;&amp;#116;&amp;#100;&amp;#49;&amp;#49;&amp;#26;&amp;#10;&amp;#87;&amp;#97;&amp;#52;&amp;#54;&amp;#93;&amp;#28;&amp;#19;&amp;#100;&amp;#61;&amp;#41;&amp;#93;&amp;#68;&amp;#84;&amp;#34;&amp;#98;&amp;#35;&amp;#89;&amp;#92;&amp;#66;&amp;#101;&amp;#116;&amp;#103;&amp;#85;&amp;#95;&amp;#71;&amp;#101;&amp;#122;&amp;#127;&amp;#94;&amp;#81;&amp;#93;&amp;#115;&amp;#61;&amp;#105;&amp;#26;&amp;#66;&amp;#94;&amp;#116;&amp;#57;&amp;#49;&amp;#93;&amp;#18;&amp;#11;&amp;#102;&amp;#57;&amp;#41;&amp;#75;&amp;#85;&amp;#29;&amp;#34;&amp;#42;&amp;#32;&amp;#75;&amp;#89;&amp;#75;&amp;#101;&amp;#122;&amp;#127;&amp;#94;&amp;#81;&amp;#93;&amp;#115;&amp;#61;&amp;#105;&amp;#26;&amp;#85;&amp;#85;&amp;#105;&amp;#44;&amp;#3;&amp;#87;&amp;#94;&amp;#69;&amp;#34;&amp;#98;&amp;#35;&amp;#89;&amp;#92;&amp;#66;&amp;#101;&amp;#116;&amp;#103;&amp;#93;&amp;#84;&amp;#88;&amp;#116;&amp;#122;&amp;#127;&amp;#94;&amp;#81;&amp;#93;&amp;#115;&amp;#61;&amp;#56;&amp;#20;&amp;#18;&amp;#88;&amp;#115;&amp;#8;&amp;#36;&amp;#76;&amp;#68;&amp;#84;&amp;#114;&amp;#54;&amp;#3;&amp;#81;&amp;#92;&amp;#93;&amp;#34;&amp;#98;&amp;#35;&amp;#89;&amp;#92;&amp;#66;&amp;#101;&amp;#116;&amp;#103;&amp;#81;&amp;#67;&amp;#97;&amp;#97;&amp;#44;&amp;#49;&amp;#93;&amp;#66;&amp;#95;&amp;#83;&amp;#44;&amp;#55;&amp;#87;&amp;#91;&amp;#84;&amp;#34;&amp;#98;&amp;#35;&amp;#89;&amp;#92;&amp;#66;&amp;#101;&amp;#37;"><rect x="399.72503662109375" y="296.7849922180176" id="xe_hs48xc" fill="none" opacity="0" width="25.34765625" height="25.34765625"></rect><g id="xe_htjw4h"><path d="M417.58503662109376,314.9649914550781 L417.58503662109376,314.9649914550781 Q417.58503662109376,316.6149914550781 416.9450366210938,317.88499145507814 Q416.30503662109373,319.1649914550781 415.11503662109374,320.0449914550781 Q413.92503662109374,320.9249914550781 412.24503662109373,321.37499145507815 Q410.5750366210938,321.8349914550781 408.51503662109377,321.8349914550781 L408.51503662109377,321.8349914550781 L402.5050366210937,321.8349914550781 L402.5050366210937,298.8649914550781 L409.0750366210938,298.8649914550781 Q416.7550366210937,298.8649914550781 416.7550366210937,304.45499145507813 L416.7550366210937,304.45499145507813 Q416.7550366210937,306.31499145507814 415.8750366210937,307.6449914550781 Q414.98503662109374,308.9849914550781 412.97503662109375,309.63499145507814 L412.97503662109375,309.63499145507814 Q413.91503662109375,309.81499145507814 414.74503662109373,310.2349914550781 Q415.58503662109376,310.6549914550781 416.21503662109376,311.32499145507813 Q416.84503662109375,311.99499145507815 417.21503662109376,312.9049914550781 Q417.58503662109376,313.81499145507814 417.58503662109376,314.9649914550781 zM413.5050366210937,304.87499145507815 L413.5050366210937,304.87499145507815 Q413.5050366210937,304.1649914550781 413.29503662109374,303.5449914550781 Q413.08503662109376,302.9249914550781 412.55503662109373,302.4749914550781 Q412.02503662109376,302.0249914550781 411.1350366210938,301.76499145507813 Q410.23503662109374,301.49499145507815 408.86503662109374,301.49499145507815 L408.86503662109374,301.49499145507815 L405.6350366210938,301.49499145507815 L405.6350366210938,308.68499145507815 L408.76503662109377,308.68499145507815 Q409.83503662109376,308.68499145507815 410.70503662109377,308.45499145507813 Q411.5750366210938,308.2249914550781 412.1950366210938,307.75499145507814 Q412.8250366210938,307.2849914550781 413.16503662109375,306.56499145507814 Q413.5050366210937,305.8549914550781 413.5050366210937,304.87499145507815 zM414.26503662109377,315.06499145507814 L414.26503662109377,315.06499145507814 Q414.26503662109377,314.18499145507815 413.89503662109377,313.4849914550781 Q413.52503662109376,312.7849914550781 412.8250366210938,312.2949914550781 Q412.11503662109374,311.81499145507814 411.10503662109375,311.55499145507815 Q410.09503662109375,311.2849914550781 408.83503662109376,311.2849914550781 L408.83503662109376,311.2849914550781 L405.6350366210938,311.2849914550781 L405.6350366210938,319.19499145507814 L408.93503662109373,319.19499145507814 Q411.6250366210937,319.19499145507814 412.9450366210938,318.19499145507814 Q414.26503662109377,317.19499145507814 414.26503662109377,315.06499145507814 z" paint-order="stroke" id="xe_87hci7" fill="#000000" stroke="#000000" stroke-width="0"></path><path d="M423.05503662109373,321.8349914550781 L423.05503662109373,304.18499145507815 L425.84503662109375,304.18499145507815 L425.93503662109373,307.43499145507815 Q427.49503662109373,305.55499145507815 429.01503662109377,304.7149914550781 Q430.53503662109375,303.87499145507815 432.08503662109376,303.87499145507815 L432.08503662109376,303.87499145507815 Q434.8250366210938,303.87499145507815 436.24503662109373,305.6449914550781 Q437.65503662109376,307.4249914550781 437.55503662109373,310.9149914550781 L437.55503662109373,310.9149914550781 L434.45503662109377,310.9149914550781 Q434.51503662109377,308.5949914550781 433.78503662109375,307.55499145507815 Q433.05503662109373,306.50499145507814 431.64503662109377,306.50499145507814 L431.64503662109377,306.50499145507814 Q431.03503662109375,306.50499145507814 430.40503662109376,306.7249914550781 Q429.78503662109375,306.94499145507814 429.1250366210937,307.4249914550781 Q428.46503662109376,307.9149914550781 427.72503662109375,308.6649914550781 Q426.98503662109374,309.4249914550781 426.14503662109377,310.49499145507815 L426.14503662109377,310.49499145507815 L426.14503662109377,321.8349914550781 L423.05503662109373,321.8349914550781 z" paint-order="stroke" id="xe_yz7dfz" fill="#000000" stroke="#000000" stroke-width="0"></path><path d="M448.1350366210937,319.2849914550781 L448.1350366210937,306.7149914550781 L442.91503662109375,306.7149914550781 L442.91503662109375,304.18499145507815 L451.22503662109375,304.18499145507815 L451.22503662109375,319.2849914550781 L456.48503662109374,319.2849914550781 L456.48503662109374,321.8349914550781 L442.33503662109376,321.8349914550781 L442.33503662109376,319.2849914550781 L448.1350366210937,319.2849914550781 zM449.20503662109377,296.7849914550781 L449.20503662109377,296.7849914550781 Q449.71503662109376,296.7849914550781 450.15503662109376,296.9749914550781 Q450.59503662109375,297.1549914550781 450.92503662109374,297.4849914550781 Q451.24503662109373,297.82499145507813 451.43503662109373,298.25499145507814 Q451.61503662109374,298.68499145507815 451.61503662109374,299.19499145507814 L451.61503662109374,299.19499145507814 Q451.61503662109374,299.68499145507815 451.43503662109373,300.12499145507815 Q451.24503662109373,300.56499145507814 450.92503662109374,300.8949914550781 Q450.59503662109375,301.2349914550781 450.15503662109376,301.4149914550781 Q449.71503662109376,301.6049914550781 449.20503662109377,301.6049914550781 L449.20503662109377,301.6049914550781 Q448.6950366210938,301.6049914550781 448.2550366210937,301.4149914550781 Q447.8150366210938,301.2349914550781 447.49503662109373,300.8949914550781 Q447.16503662109375,300.56499145507814 446.98503662109374,300.12499145507815 Q446.79503662109374,299.68499145507815 446.79503662109374,299.19499145507814 L446.79503662109374,299.19499145507814 Q446.79503662109374,298.68499145507815 446.98503662109374,298.25499145507814 Q447.16503662109375,297.82499145507813 447.49503662109373,297.4849914550781 Q447.8150366210938,297.1549914550781 448.2550366210937,296.9749914550781 Q448.6950366210938,296.7849914550781 449.20503662109377,296.7849914550781 z" paint-order="stroke" id="xe_pmwuw0" fill="#000000" stroke="#000000" stroke-width="0"></path><path d="M477.45503662109377,306.68499145507815 L474.6250366210937,306.68499145507815 Q475.11503662109374,307.2949914550781 475.39503662109377,308.1149914550781 Q475.66503662109375,308.93499145507815 475.66503662109375,309.88499145507814 L475.66503662109375,309.88499145507814 Q475.66503662109375,311.25499145507814 475.16503662109375,312.38499145507814 Q474.66503662109375,313.5249914550781 473.74503662109373,314.32499145507813 Q472.83503662109376,315.13499145507814 471.55503662109373,315.5849914550781 Q470.28503662109375,316.0349914550781 468.7550366210937,316.0349914550781 L468.7550366210937,316.0349914550781 Q467.64503662109377,316.0349914550781 466.68503662109373,315.7949914550781 Q465.71503662109376,315.55499145507815 465.15503662109376,315.20499145507813 L465.15503662109376,315.20499145507813 Q464.8150366210938,315.70499145507813 464.58503662109376,316.13499145507814 Q464.35503662109375,316.57499145507813 464.35503662109375,317.12499145507815 L464.35503662109375,317.12499145507815 Q464.35503662109375,317.7949914550781 465.0050366210937,318.2349914550781 Q465.64503662109377,318.6749914550781 466.6950366210938,318.70499145507813 L466.6950366210938,318.70499145507813 L471.33503662109376,318.88499145507814 Q472.65503662109376,318.9149914550781 473.77503662109376,319.2149914550781 Q474.8850366210937,319.51499145507813 475.68503662109373,320.07499145507813 Q476.48503662109374,320.63499145507814 476.93503662109373,321.4649914550781 Q477.3850366210937,322.2949914550781 477.3850366210937,323.38499145507814 L477.3850366210937,323.38499145507814 Q477.3850366210937,324.55499145507815 476.8750366210937,325.6149914550781 Q476.36503662109374,326.6649914550781 475.30503662109373,327.4649914550781 Q474.23503662109374,328.26499145507813 472.60503662109375,328.74499145507815 Q470.96503662109376,329.2149914550781 468.71503662109376,329.2149914550781 L468.71503662109376,329.2149914550781 Q466.5750366210938,329.2149914550781 465.0750366210938,328.87499145507815 Q463.5650366210938,328.5349914550781 462.60503662109375,327.9249914550781 Q461.6350366210937,327.31499145507814 461.1950366210938,326.4849914550781 Q460.7550366210937,325.6449914550781 460.7550366210937,324.6449914550781 L460.7550366210937,324.6449914550781 Q460.7550366210937,323.3649914550781 461.35503662109375,322.3949914550781 Q461.95503662109377,321.43499145507815 463.1950366210938,320.5349914550781 L463.1950366210938,320.5349914550781 Q462.74503662109373,320.32499145507813 462.40503662109376,320.00499145507814 Q462.0750366210938,319.69499145507814 461.86503662109374,319.31499145507814 Q461.65503662109376,318.93499145507815 461.54503662109374,318.51499145507813 Q461.4450366210938,318.0949914550781 461.4450366210938,317.68499145507815 L461.4450366210938,317.68499145507815 Q461.4450366210938,316.5449914550781 461.97503662109375,315.5949914550781 Q462.51503662109377,314.6449914550781 463.2550366210937,313.80499145507815 L463.2550366210937,313.80499145507815 Q462.91503662109375,313.3949914550781 462.66503662109375,313.01499145507813 Q462.40503662109376,312.62499145507815 462.22503662109375,312.1749914550781 Q462.03503662109375,311.7249914550781 461.9450366210938,311.20499145507813 Q461.84503662109375,310.69499145507814 461.84503662109375,310.0249914550781 L461.84503662109375,310.0249914550781 Q461.84503662109375,308.6549914550781 462.34503662109375,307.51499145507813 Q462.84503662109375,306.38499145507814 463.7550366210937,305.57499145507813 Q464.65503662109376,304.76499145507813 465.93503662109373,304.31499145507814 Q467.20503662109377,303.87499145507815 468.7550366210937,303.87499145507815 L468.7550366210937,303.87499145507815 Q469.40503662109376,303.87499145507815 470.0050366210937,303.95499145507813 Q470.60503662109375,304.0449914550781 471.05503662109373,304.18499145507815 L471.05503662109373,304.18499145507815 L477.45503662109377,304.18499145507815 L477.45503662109377,306.68499145507815 zM464.0050366210937,324.38499145507814 L464.0050366210937,324.38499145507814 Q464.0050366210937,325.63499145507814 465.30503662109373,326.20499145507813 Q466.60503662109375,326.7749914550781 468.93503662109373,326.7749914550781 L468.93503662109373,326.7749914550781 Q470.3850366210937,326.7749914550781 471.3850366210937,326.51499145507813 Q472.3750366210937,326.24499145507815 472.98503662109374,325.81499145507814 Q473.58503662109376,325.38499145507814 473.85503662109375,324.8349914550781 Q474.11503662109374,324.2749914550781 474.11503662109374,323.69499145507814 L474.11503662109374,323.69499145507814 Q474.11503662109374,322.62499145507815 473.23503662109374,322.1149914550781 Q472.35503662109375,321.6049914550781 470.54503662109374,321.51499145507813 L470.54503662109374,321.51499145507813 L465.9450366210938,321.3649914550781 Q465.36503662109374,321.74499145507815 464.98503662109374,322.1149914550781 Q464.60503662109375,322.4849914550781 464.39503662109377,322.8649914550781 Q464.18503662109373,323.24499145507815 464.09503662109375,323.6149914550781 Q464.0050366210937,323.99499145507815 464.0050366210937,324.38499145507814 zM464.93503662109373,309.95499145507813 L464.93503662109373,309.95499145507813 Q464.93503662109373,310.7949914550781 465.22503662109375,311.49499145507815 Q465.5050366210937,312.20499145507813 466.01503662109377,312.69499145507814 Q466.52503662109376,313.18499145507815 467.21503662109376,313.45499145507813 Q467.91503662109375,313.7349914550781 468.7550366210937,313.7349914550781 L468.7550366210937,313.7349914550781 Q469.66503662109375,313.7349914550781 470.3850366210937,313.4249914550781 Q471.09503662109375,313.1149914550781 471.5750366210938,312.5849914550781 Q472.05503662109373,312.06499145507814 472.3150366210938,311.37499145507815 Q472.5650366210938,310.69499145507814 472.5650366210938,309.95499145507813 L472.5650366210938,309.95499145507813 Q472.5650366210938,309.1049914550781 472.28503662109375,308.4049914550781 Q472.0050366210937,307.70499145507813 471.49503662109373,307.20499145507813 Q470.98503662109374,306.7149914550781 470.29503662109374,306.44499145507814 Q469.59503662109375,306.1749914550781 468.7550366210937,306.1749914550781 L468.7550366210937,306.1749914550781 Q467.84503662109375,306.1749914550781 467.1250366210937,306.4849914550781 Q466.41503662109375,306.80499145507815 465.93503662109373,307.32499145507813 Q465.4450366210938,307.8449914550781 465.1950366210938,308.5249914550781 Q464.93503662109373,309.2149914550781 464.93503662109373,309.95499145507813 z" paint-order="stroke" id="xe_4nhvbs" fill="#000000" stroke="#000000" stroke-width="0"></path><path d="M495.89503662109377,310.32499145507813 L495.89503662109377,321.8349914550781 L492.83503662109376,321.8349914550781 L492.83503662109376,310.56499145507814 Q492.83503662109376,308.5249914550781 492.0750366210938,307.51499145507813 Q491.30503662109373,306.50499145507814 489.8850366210937,306.50499145507814 L489.8850366210937,306.50499145507814 Q489.26503662109377,306.50499145507814 488.73503662109374,306.6749914550781 Q488.1950366210938,306.8449914550781 487.61503662109374,307.25499145507814 Q487.03503662109375,307.6649914550781 486.35503662109375,308.37499145507815 Q485.66503662109375,309.07499145507813 484.76503662109377,310.12499145507815 L484.76503662109377,310.12499145507815 L484.76503662109377,321.8349914550781 L481.70503662109377,321.8349914550781 L481.70503662109377,296.99499145507815 L484.76503662109377,296.99499145507815 L484.76503662109377,304.18499145507815 L484.66503662109375,306.9649914550781 Q485.3850366210937,306.1049914550781 486.0750366210938,305.51499145507813 Q486.77503662109376,304.9249914550781 487.46503662109376,304.55499145507815 Q488.16503662109375,304.18499145507815 488.8850366210937,304.0249914550781 Q489.60503662109375,303.87499145507815 490.3750366210937,303.87499145507815 L490.3750366210937,303.87499145507815 Q493.01503662109377,303.87499145507815 494.45503662109377,305.4749914550781 Q495.89503662109377,307.0849914550781 495.89503662109377,310.32499145507813 L495.89503662109377,310.32499145507813 z" paint-order="stroke" id="xe_ymd2if" fill="#000000" stroke="#000000" stroke-width="0"></path><path d="M515.7250366210938,318.95499145507813 L515.7250366210938,321.5849914550781 Q514.6850366210938,321.8549914550781 513.5750366210938,321.9649914550781 Q512.4750366210938,322.0849914550781 511.3250366210938,322.0849914550781 L511.3250366210938,322.0849914550781 Q508.0050366210937,322.0849914550781 506.3750366210937,320.57499145507813 Q504.73503662109374,319.07499145507813 504.73503662109374,315.9649914550781 L504.73503662109374,315.9649914550781 L504.73503662109374,306.75499145507814 L499.79503662109374,306.75499145507814 L499.79503662109374,304.18499145507815 L504.73503662109374,304.18499145507815 L504.73503662109374,299.3349914550781 L507.79503662109374,298.5449914550781 L507.79503662109374,304.18499145507815 L515.7250366210938,304.18499145507815 L515.7250366210938,306.75499145507814 L507.79503662109374,306.75499145507814 L507.79503662109374,315.7149914550781 Q507.79503662109374,317.6149914550781 508.80503662109373,318.55499145507815 Q509.8150366210938,319.49499145507815 511.78503662109375,319.49499145507815 L511.78503662109375,319.49499145507815 Q512.6250366210937,319.49499145507815 513.6350366210937,319.3649914550781 Q514.6350366210937,319.2349914550781 515.7250366210938,318.95499145507813 L515.7250366210938,318.95499145507813 z" paint-order="stroke" id="xe_b96bsg" fill="#000000" stroke="#000000" stroke-width="0"></path><path d="M536.2050366210938,312.07499145507813 L536.2050366210938,312.07499145507813 Q536.2050366210938,312.7249914550781 536.1850366210938,313.1649914550781 Q536.1650366210938,313.6049914550781 536.1350366210937,313.99499145507815 L536.1350366210937,313.99499145507815 L523.7350366210937,313.99499145507815 Q523.7350366210937,316.70499145507813 525.2550366210937,318.1549914550781 Q526.7650366210937,319.6049914550781 529.6050366210937,319.6049914550781 L529.6050366210937,319.6049914550781 Q530.3850366210937,319.6049914550781 531.1550366210938,319.5449914550781 Q531.9350366210938,319.4749914550781 532.6550366210938,319.37499145507815 Q533.3750366210937,319.26499145507813 534.0350366210937,319.13499145507814 Q534.6850366210938,319.00499145507814 535.2550366210937,318.8449914550781 L535.2550366210937,318.8449914550781 L535.2550366210937,321.3649914550781 Q534.0050366210937,321.7149914550781 532.4350366210938,321.93499145507815 Q530.8550366210937,322.1549914550781 529.1750366210938,322.1549914550781 L529.1750366210938,322.1549914550781 Q526.9050366210938,322.1549914550781 525.2650366210937,321.5349914550781 Q523.6350366210937,320.9249914550781 522.5850366210938,319.75499145507814 Q521.5450366210937,318.5849914550781 521.0450366210937,316.88499145507814 Q520.5350366210937,315.19499145507814 520.5350366210937,313.0449914550781 L520.5350366210937,313.0449914550781 Q520.5350366210937,311.18499145507815 521.0750366210938,309.5249914550781 Q521.6150366210937,307.8649914550781 522.6450366210937,306.6049914550781 Q523.6650366210938,305.3449914550781 525.1650366210938,304.6049914550781 Q526.6550366210938,303.87499145507815 528.5550366210938,303.87499145507815 L528.5550366210938,303.87499145507815 Q530.4050366210938,303.87499145507815 531.8250366210938,304.45499145507813 Q533.2450366210937,305.0349914550781 534.2250366210938,306.0949914550781 Q535.1950366210938,307.1549914550781 535.7050366210938,308.6749914550781 Q536.2050366210938,310.19499145507814 536.2050366210938,312.07499145507813 zM523.7350366210937,311.63499145507814 L533.0150366210937,311.63499145507814 Q533.0750366210938,310.4649914550781 532.7950366210937,309.4849914550781 Q532.5150366210937,308.51499145507813 531.9250366210938,307.80499145507815 Q531.3350366210938,307.1049914550781 530.4550366210938,306.70499145507813 Q529.5750366210938,306.31499145507814 528.4150366210938,306.31499145507814 L528.4150366210938,306.31499145507814 Q527.4150366210938,306.31499145507814 526.5850366210938,306.70499145507813 Q525.7650366210937,307.0849914550781 525.1650366210938,307.7949914550781 Q524.5650366210938,308.49499145507815 524.1950366210938,309.4749914550781 Q523.8250366210938,310.4649914550781 523.7350366210937,311.63499145507814 L523.7350366210937,311.63499145507814 z" paint-order="stroke" id="xe_96atia" fill="#000000" stroke="#000000" stroke-width="0"></path><path d="M541.0850366210938,321.8349914550781 L541.0850366210938,304.18499145507815 L543.8150366210938,304.18499145507815 L543.9350366210938,307.0349914550781 Q544.7050366210938,306.12499145507815 545.4350366210938,305.51499145507813 Q546.1550366210938,304.9049914550781 546.8450366210938,304.5349914550781 Q547.5350366210937,304.1649914550781 548.2650366210937,304.01499145507813 Q548.9850366210937,303.87499145507815 549.7550366210937,303.87499145507815 L549.7550366210937,303.87499145507815 Q552.4750366210938,303.87499145507815 553.8750366210937,305.4749914550781 Q555.2750366210937,307.0849914550781 555.2750366210937,310.32499145507813 L555.2750366210937,310.32499145507813 L555.2750366210937,321.8349914550781 L552.2150366210938,321.8349914550781 L552.2150366210938,310.56499145507814 Q552.2150366210938,308.49499145507815 551.4450366210938,307.50499145507814 Q550.6650366210938,306.50499145507814 549.1350366210937,306.50499145507814 L549.1350366210937,306.50499145507814 Q548.5750366210938,306.50499145507814 548.0450366210937,306.6749914550781 Q547.5050366210937,306.8449914550781 546.9250366210938,307.25499145507814 Q546.3450366210938,307.6649914550781 545.6650366210938,308.37499145507815 Q544.9950366210937,309.07499145507813 544.1450366210937,310.12499145507815 L544.1450366210937,310.12499145507815 L544.1450366210937,321.8349914550781 L541.0850366210938,321.8349914550781 z" paint-order="stroke" id="xe_9o9cbi" fill="#000000" stroke="#000000" stroke-width="0"></path></g></g></g><g id="borderG" clip-path="url(#bound_0)" display="none"><rect id="border" x="215.5" y="129.6" width="524" height="366.8" aWidth="1" aHeight="0.70" fill="none" stroke-width="1" stroke="#000" pointer-events="none"></rect></g></svg>